<svg width="51" height="48" viewBox="0 0 51 48" fill="none" xmlns="http://www.w3.org/2000/svg">
<path d="M44.1339 29.9211V10.9737C44.1339 6.50684 44.1339 4.27579 42.746 2.88789C41.3581 1.5 39.127 1.5 34.6602 1.5H15.7128C11.246 1.5 9.0149 1.5 7.62701 2.88789C6.23911 4.27579 6.23911 6.50684 6.23911 10.9737V29.9211M5.05017 32.325L6.28648 29.9211H44.0202L45.3228 32.325C48.7404 38.6297 49.5931 41.7821 48.2928 44.1411C46.9925 46.5 43.5512 46.5 36.6639 46.5H13.7091C6.81938 46.5 3.37569 46.5 2.0778 44.1411C0.777535 41.7821 1.63017 38.6297 5.05017 32.325Z" stroke="#A800D5" stroke-width="3" stroke-linecap="round" stroke-linejoin="round"/>
<path d="M33.4758 12.158L35.6548 14.0361C36.5713 14.8248 37.0284 15.2203 37.0284 15.7106C37.0284 16.2009 36.5713 16.5964 35.6548 17.3851L33.4758 19.2632M16.8969 12.158L14.7179 14.0361C13.8013 14.8248 13.3442 15.2203 13.3442 15.7106C13.3442 16.2009 13.8013 16.5964 14.7179 17.3851L16.8969 19.2632M27.5548 9.78955L22.8179 21.6317" stroke="#A800D5" stroke-width="3" stroke-linecap="round" stroke-linejoin="round"/>
</svg>
